<svg width="200" height="200" viewBox="0 0 200 200" xmlns="http://www.w3.org/2000/svg">
  <rect width="200" height="200" fill="transparent"/>

  <defs>
    <color id="cameraColor" value="#4A4A4A" />
    <color id="accentColor" value="#F06292" />
  </defs>

  <g fill="none" stroke="#4A4A4A" stroke-width="6" stroke-linecap="round" stroke-linejoin="round">
    <rect x="30" y="60" width="140" height="100" rx="15" ry="15" />

    <path d="M60 60 L70 45 L130 45 L140 60" />
    <rect x="145" y="70" width="15" height="10" rx="2" fill="#4A4A4A" stroke="none"/>
  </g>

  <g transform="translate(100, 110)">
    <circle cx="0" cy="0" r="35" fill="#FFFFFF" stroke="#4A4A4A" stroke-width="6"/>

    <circle cx="0" cy="0" r="27" fill="none" stroke="#F06292" stroke-width="3"/>

    <path d="M0,8 C-10,0 -16,-6 -16,-12 C-16,-18 -12,-22 -6,-22 C-2,-22 0,-18 0,-18 C0,-18 2,-22 6,-22 C12,-22 16,-18 16,-12 C16,-6 10,0 0,8 Z"
          fill="#F06292" stroke="none" transform="translate(0, 5) scale(0.85)"/>
  </g>
</svg>
