<svg width="100" height="100" viewBox="0 0 100 100" fill="none" xmlns="http://www.w3.org/2000/svg">
  <path d="M30 20C45 20 55 30 55 45C55 60 45 70 30 70H20V20H30ZM30 35V55C38 55 43 50 43 45C43 40 38 35 30 35Z" fill="url(#paint0_linear)"/>
  <path d="M50 45C65 45 75 55 75 70C75 85 65 95 50 95H35V45H50ZM50 60V80C58 80 63 75 63 70C63 65 58 60 50 60Z" fill="url(#paint1_linear)"/>
  <defs>
    <linearGradient id="paint0_linear" x1="20" y1="20" x2="55" y2="70" gradientUnits="userSpaceOnUse">
      <stop stop-color="#3B82F6"/>
      <stop offset="1" stop-color="#1D4ED8"/>
    </linearGradient>
    <linearGradient id="paint1_linear" x1="35" y1="45" x2="75" y2="95" gradientUnits="userSpaceOnUse">
      <stop stop-color="#60A5FA"/>
      <stop offset="1" stop-color="#2563EB"/>
    </linearGradient>
  </defs>
</svg>
