<svg width="512" height="512" viewBox="0 0 512 512" fill="none" xmlns="http://www.w3.org/2000/svg">
  <!-- Rounded square background -->
  <rect x="16" y="16" width="480" height="480" rx="96" fill="url(#bg_grad)"/>
  
  <!-- Camera lens ring (subtle) -->
  <circle cx="256" cy="256" r="180" stroke="white" stroke-opacity="0.08" stroke-width="40" fill="none"/>
  
  <!-- Stylized P - bold geometric -->
  <path d="M152 148h76c56 0 90 34 90 82 0 48-34 82-90 82h-34v76h-42V148z
           M194 182v96h34c30 0 48-18 48-48s-18-48-48-48h-34z" 
        fill="white"/>
  
  <!-- Stylized b - lowercase, offset, elegant -->
  <path d="M296 148h38v96c12-16 32-28 56-28 42 0 70 34 70 78s-28 78-70 78c-24 0-44-12-56-28v24h-38V148z
           M384 294c0-26-18-46-44-46s-44 20-44 46 18 46 44 46 44-20 44-46z" 
        fill="white" fill-opacity="0.9"/>

  <!-- Aperture blades accent (bottom-left) -->
  <g transform="translate(108, 370)" opacity="0.15">
    <path d="M0 12L10 0L20 12L10 24Z" fill="white"/>
    <path d="M22 12L32 0L42 12L32 24Z" fill="white"/>
    <path d="M11 24L21 12L31 24L21 36Z" fill="white"/>
  </g>

  <defs>
    <linearGradient id="bg_grad" x1="0" y1="0" x2="512" y2="512" gradientUnits="userSpaceOnUse">
      <stop stop-color="#ff7979"/>
      <stop offset="0.4" stop-color="#ff6b6b"/>
      <stop offset="1" stop-color="#d63031"/>
    </linearGradient>
  </defs>
</svg>
